<?xml version="1.0" encoding="UTF-8"?><svg version="1.1" viewBox="0 0 24 24" xmlns="http://www.w3.org/2000/svg" xmlns:xlink="http://www.w3.org/1999/xlink"><g fill="#C026D3"><path d="M7.019 15.47l5.29661e-08-5.12053e-08c-.297801.287901-.305827.762707-.0179256 1.06051 .287901.297801.762707.305827 1.06051.0179256 .00624524-.00603762.0123851-.0121833.0184168-.0184342l2.5-2.5 8.67436e-10-8.66201e-10c.292711-.292294.293049-.766535.000754309-1.05925 -.000251258-.000251616-.000502695-.000503053-.00075431-.00075431l-2.5-2.5 -3.68638e-09-3.56384e-09c-.297801-.287901-.772607-.279876-1.06051.0179255 -.280853.290511-.28107.751299-.000491306 1.04207l1.793 1.793 1.11507e-08 1.11225e-08c.0977544.0975076.0979545.255799.00044687.353553 -.000148776.000149152-.00029774.000298116-.000446892.000446892Z"></path><path d="M12.55 15.75h4 -3.27835e-08c.414214 1.81058e-08.75-.335786.75-.75 1.81059e-08-.414214-.335786-.75-.75-.75h-4 -3.27835e-08c-.414214 1.81059e-08-.75.335786-.75.75 1.81059e-08.414214.335786.75.75.75Z"></path><path d="M24 4.75v0c0-1.65685-1.34315-3-3-3h-18l-1.31134e-07 3.55271e-15c-1.65685 7.24234e-08-3 1.34315-3 3 0 0 0 1.77636e-15 0 1.77636e-15v14.5l3.19744e-14 4.52987e-07c2.50178e-07 1.65685 1.34315 3 3 3h18 -1.31134e-07c1.65685 7.24234e-08 3-1.34315 3-3Zm-14.346-1l3.24426e-08-5.88595e-08c.257533-.467233.845072-.637228 1.3123-.379695 .159905.0881379.291557.21979.379695.379695l-6.28436e-09-9.75868e-09c.0962064.149394.149482.322366.154.5l-1.69308e-08 6.65615e-07c-.00451842.177634-.0577938.350606-.154.5l1.01735e-08-1.84575e-08c-.257533.467233-.845072.637228-1.3123.379695 -.159905-.0881379-.291557-.21979-.379695-.379695l-3.95811e-08-6.14635e-08c-.0962064-.149394-.149482-.322366-.154-.5l1.54652e-08-6.08001e-07c.00451841-.177634.0577939-.350606.154001-.5Zm-3.5 0l3.24426e-08-5.88595e-08c.257533-.467233.845072-.637228 1.3123-.379695 .159905.0881379.291557.21979.379695.379695l-7.23141e-09-1.12293e-08c.0962064.149394.149482.322366.154.5l-1.69308e-08 6.65615e-07c-.00451842.177634-.0577938.350606-.154.5l1.01735e-08-1.84575e-08c-.257533.467233-.845072.637228-1.3123.379695 -.159905-.0881379-.291557-.21979-.379695-.379695l-3.47903e-08-5.40242e-08c-.0962064-.149394-.149482-.322366-.154-.500001l1.22282e-08-4.80737e-07c.0045184-.177634.0577938-.350606.154-.5Zm-3.562.092l-3.29667e-08 7.37723e-08c.160195-.358482.515357-.590042.908-.592l-1.62245e-08-1.87104e-10c.350938.00404708.673215.194518.846.5l-6.28436e-09-9.75868e-09c.0962064.149394.149482.322366.154.5l-1.69308e-08 6.65615e-07c-.00451842.177634-.0577938.350606-.154.5l1.01735e-08-1.84575e-08c-.257533.467233-.845072.637228-1.3123.379695 -.159905-.0881379-.291557-.21979-.379695-.379695l-3.95811e-08-6.14635e-08c-.0962064-.149394-.149482-.322366-.154-.5l-4.62795e-09 7.10363e-07c.000918809-.141039.0323016-.280215.0920002-.408Zm19.408 15.408v0c0 .552285-.447715 1-1 1h-18 -4.37114e-08c-.552285-2.41411e-08-1-.447715-1-1 0 0 0-3.55271e-15 0-3.55271e-15v-12.25l3.55271e-15 3.77489e-08c-2.08482e-08-.138071.111929-.25.25-.25h19.5l-2.98122e-09 8.88178e-16c.138071-2.24947e-08.25.111929.25.25 3.55271e-15 1.27446e-08 3.55271e-15 2.50043e-08 3.55271e-15 3.77489e-08Z"></path></g></svg>